HIERARCHY
ROOT Hips
{
	OFFSET 0.00000 0.00000 0.00000
	CHANNELS 6 Xposition Yposition Zposition Zrotation Yrotation Xrotation 
	JOINT LHipJoint
	{
		OFFSET 0 0 0
		CHANNELS 3 Zrotation Yrotation Xrotation
		JOINT LeftHip
		{
			OFFSET 1.81638 -1.86202 0.89635
			CHANNELS 3 Zrotation Yrotation Xrotation
			JOINT LeftKnee
			{
				OFFSET 2.63464 -7.23861 0.00000
				CHANNELS 3 Zrotation Yrotation Xrotation
				JOINT LeftAnkle
				{
					OFFSET 2.45871 -6.75336 0.00000
					CHANNELS 3 Zrotation Yrotation Xrotation
					JOINT LeftToe
					{
						OFFSET 0.34235 -0.94059 2.20020
						CHANNELS 3 Zrotation Yrotation Xrotation
						End Site
						{
							OFFSET 0.00000 -0.00000 1.18611
						}
					}
				}
			}
		}
	}
	JOINT RHipJoint
	{
		OFFSET 0 0 0
		CHANNELS 3 Zrotation Yrotation Xrotation
		JOINT RightHip
		{
			OFFSET -1.84405 -1.86203 0.89635
			CHANNELS 3 Zrotation Yrotation Xrotation
			JOINT RightKnee
			{
				OFFSET -2.71067 -7.44751 0.00000
				CHANNELS 3 Zrotation Yrotation Xrotation
				JOINT RightAnkle
				{
					OFFSET -2.47159 -6.79060 0.00000
					CHANNELS 3 Zrotation Yrotation Xrotation
					JOINT RightToe
					{
						OFFSET -0.26223 -0.72048 2.36007
						CHANNELS 3 Zrotation Yrotation Xrotation
						End Site
						{
							OFFSET -0.00000 -0.00000 1.23343
						}
					}
				}
			}
		}
	}
	JOINT lowerback
	{
		OFFSET 0 0 0
		CHANNELS 3 Zrotation Yrotation Xrotation
		JOINT Chest
		{
			OFFSET 0.02089 1.99248 -0.22512
			CHANNELS 3 Zrotation Yrotation Xrotation
			JOINT Chest2
			{
				OFFSET 0.01476 2.01356 -0.03079
				CHANNELS 3 Zrotation Yrotation Xrotation
				JOINT lowerneck
				{
					OFFSET 0 0 0
					CHANNELS 3 Zrotation Yrotation Xrotation
					JOINT Neck
					{
						OFFSET 0.04846 1.65098 0.06663
						CHANNELS 3 Zrotation Yrotation Xrotation
						JOINT Head
						{
							OFFSET -0.06061 1.60634 -0.07565
							CHANNELS 3 Zrotation Yrotation Xrotation
							End Site
							{
								OFFSET -0.02954 1.73562 -0.03642
							}
						}
					}
				}
				JOINT LeftCollar
				{
					OFFSET 0 0 0
					CHANNELS 3 Zrotation Yrotation Xrotation
					JOINT LeftShoulder
					{
						OFFSET 3.45234 1.47051 -0.06993
CHANNELS 3 Zrotation Xrotation Yrotation
						JOINT LeftElbow
						{
OFFSET 0 -5.493130 0.000000
CHANNELS 3 Zrotation Xrotation Yrotation
							JOINT LeftWrist
							{
OFFSET 0 -3.290370 0.000000
CHANNELS 3 Zrotation Xrotation Yrotation
								JOINT lhand
								{
									OFFSET 0 0 0
CHANNELS 3 Zrotation Xrotation Yrotation
									JOINT LFingers
									{
OFFSET 0 -0.729660 0.000000
CHANNELS 3 Zrotation Xrotation Yrotation
										End Site
										{
OFFSET 0 -0.588270 0.000000
										}
									}
								}
								JOINT LThumb
								{
OFFSET 0 0.000000 0.000000
CHANNELS 3 Zrotation Xrotation Yrotation
									End Site
									{
OFFSET 0 -0.597250 0.597250
									}
								}
							}
						}
					}
				}
				JOINT RightCollar
				{
					OFFSET 0 0 0
					CHANNELS 3 Zrotation Yrotation Xrotation
					JOINT RightShoulder
					{
						OFFSET -3.41935 1.44327 0.20453
CHANNELS 3 Zrotation Xrotation Yrotation
						JOINT RightElbow
						{
OFFSET 0 -5.236840 0.000000
CHANNELS 3 Zrotation Xrotation Yrotation
							JOINT RightWrist
							{
OFFSET 0 -3.382510 0.000000
CHANNELS 3 Zrotation Xrotation Yrotation
								JOINT rhand
								{
									OFFSET 0 0 0
CHANNELS 3 Zrotation Xrotation Yrotation
									JOINT RFingers
									{
OFFSET 0 -0.691450 0.000000
CHANNELS 3 Zrotation Xrotation Yrotation
										End Site
										{
OFFSET 0 -0.557470 0.000000
										}
									}
								}
								JOINT RThumb
								{
OFFSET 0 0.000000 0.000000
CHANNELS 3 Zrotation Xrotation Yrotation
									End Site
									{
OFFSET 0 -0.565980 0.565980
									}
								}
							}
						}
					}
				}
			}
		}
	}
}
MOTION
Frames: 6
Frame Time: 0.008333333333333333
-40.090600 17.569200 -2.069600 -12.494700 82.390800 -10.886500 0.000000 0.000000 0.000000 -12.491500 -11.801400 -16.481200 2.640600 10.089100 29.265900 -0.090200 -17.420600 -11.365800 0.007000 0.541700 1.488400 0.000000 0.000000 0.000000 25.035300 6.772100 6.891200 -0.934000 -6.156100 17.238100 -2.023300 1.891300 -26.395200 -0.377700 -3.947300 10.928400 -0.291400 -1.326400 14.495900 2.094000 -1.522800 3.672800 2.630100 -0.678600 -4.172100 -1.326900 2.808900 -2.322800 -4.594700 3.602500 -12.881900 -1.383000 2.152300 -3.709600 0.000000 -0.000000 0.000000 3.975500 20.471100 -25.727900 31.316100 -41.995100 12.280800 6.938300 -3.568900 -5.682700 0.000000 0.000000 0.000000 -7.125000 0.000000 0.000000 -16.351400 35.294700 -4.035100 0.000000 -0.000000 0.000000 -15.605100 15.530900 39.419200 -26.355800 -37.557900 -9.103700 -8.735200 0.765800 16.436300 0.000000 0.000000 0.000000 7.125000 0.000000 -0.000000 17.808100 45.806700 -0.366200
-40.095466 17.575412 -2.069770 -12.565804 82.057260 -10.728396 0.000000 0.000000 0.000000 -12.335715 -11.674518 -16.717337 2.635146 10.079592 29.235021 -0.076121 -17.263125 -11.387576 0.006264 0.510972 1.404087 0.000000 0.000000 0.000000 25.027776 6.999627 6.562396 -0.945775 -6.193854 17.347953 -1.988134 2.082633 -26.110278 -0.354570 -3.825690 10.586927 -0.223009 -1.232323 14.332008 2.102369 -1.393867 3.612213 2.573981 -0.617389 -4.154620 -1.194026 2.815036 -2.504339 -4.714991 3.609168 -12.761070 -1.438208 2.150041 -3.627998 0.000000 0.000000 0.000000 4.085695 20.494160 -25.954633 31.375162 -42.043314 12.320296 6.447003 -3.713821 -5.817709 0.000000 0.000000 0.000000 -7.125000 0.000000 0.000000 -16.776122 35.398133 -4.103525 0.000000 0.000000 0.000000 -15.581960 15.524523 39.428468 -26.341403 -37.543801 -9.094886 -8.655777 0.868458 16.647816 0.000000 0.000000 0.000000 7.125000 0.000000 0.000000 17.956150 45.999261 -0.457875
-40.098867 17.578167 -2.068216 -12.769104 82.049015 -10.889741 0.000000 0.000000 0.000000 -12.293590 -11.640565 -16.830039 2.637810 10.084245 29.249993 -0.082405 -17.297364 -11.350080 0.005805 0.489556 1.345130 0.000000 0.000000 0.000000 25.056195 7.027915 6.489962 -0.950815 -6.209800 17.394381 -1.969862 2.060900 -25.991806 -0.331178 -3.698382 10.229735 -0.205752 -1.235731 14.318889 2.116246 -1.395546 3.599845 2.579022 -0.618339 -4.160569 -0.967382 2.807200 -2.637807 -4.925222 3.586660 -12.666111 -1.540611 2.133329 -3.562504 0.000000 0.000000 0.000000 4.190801 20.551205 -26.195719 31.476928 -42.126164 12.388559 6.163684 -3.794487 -5.862843 0.000000 0.000000 0.000000 -7.125000 0.000000 0.000000 -17.013962 35.426058 -4.154138 0.000000 0.000000 0.000000 -15.583705 15.594250 39.465944 -26.360751 -37.562728 -9.106707 -8.662762 0.807068 16.471042 0.000000 0.000000 0.000000 7.125000 0.000000 0.000000 17.885624 45.831069 -0.379110
-40.102456 17.580175 -2.066979 -12.770519 82.013602 -10.870923 0.000000 0.000000 0.000000 -12.282352 -11.590679 -16.944323 2.644966 10.096873 29.290982 -0.085651 -17.312387 -11.329019 0.004616 0.439612 1.207901 0.000000 0.000000 0.000000 25.066209 7.072451 6.434083 -0.957117 -6.229810 17.452640 -1.950844 2.017372 -25.872427 -0.306078 -3.556727 9.832921 -0.210910 -1.226239 14.330112 2.121972 -1.383226 3.602035 2.586094 -0.612090 -4.164513 -0.713280 2.808785 -2.836004 -5.177586 3.575947 -12.521526 -1.659004 2.121021 -3.466508 0.000000 0.000000 0.000000 4.282327 20.586818 -26.427545 31.563749 -42.196604 12.446852 6.055224 -3.860693 -5.806955 0.000000 0.000000 0.000000 -7.125000 0.000000 0.000000 -17.088991 35.366271 -4.199902 0.000000 0.000000 0.000000 -15.579067 15.649865 39.510027 -26.425881 -37.626168 -9.146410 -8.602404 0.767222 16.565942 0.000000 0.000000 0.000000 7.125000 0.000000 0.000000 17.974052 45.914502 -0.419220
-40.107081 17.580616 -2.065961 -12.725491 81.987731 -10.813395 0.000000 0.000000 0.000000 -12.277035 -11.565988 -17.029784 2.652104 10.109356 29.331643 -0.086633 -17.310228 -11.317842 0.004016 0.408956 1.123738 0.000000 0.000000 0.000000 25.068521 7.115037 6.338462 -0.972273 -6.277466 17.591735 -1.939791 1.990384 -25.803333 -0.283254 -3.422887 9.458460 -0.220067 -1.218729 14.347518 2.120890 -1.374285 3.607348 2.588979 -0.607487 -4.168656 -0.437283 2.818968 -3.009296 -5.444541 3.574098 -12.399887 -1.787583 2.113211 -3.383046 0.000000 0.000000 0.000000 4.372313 20.633413 -26.637398 31.660237 -42.274621 12.511669 6.087354 -3.930463 -5.721730 0.000000 0.000000 0.000000 -7.125000 0.000000 0.000000 -17.044631 35.286186 -4.222909 0.000000 0.000000 0.000000 -15.567214 15.707056 39.558203 -26.483795 -37.682417 -9.181743 -8.578387 0.696698 16.582159 0.000000 0.000000 0.000000 7.125000 0.000000 0.000000 18.001400 45.927046 -0.425645
-40.112286 17.579513 -2.065070 -12.482925 81.966153 -10.576041 0.000000 0.000000 0.000000 -12.304207 -11.562316 -17.075610 2.658584 10.120670 29.368396 -0.084168 -17.282158 -11.321240 0.003490 0.383525 1.053921 0.000000 0.000000 0.000000 25.044050 7.166455 6.209498 -0.998471 -6.358872 17.829182 -1.938504 1.977027 -25.798309 -0.262415 -3.295405 9.102314 -0.250430 -1.210347 14.386547 2.107110 -1.367623 3.613666 2.591567 -0.603782 -4.183041 -0.075761 2.834368 -3.230685 -5.798356 3.573419 -12.229554 -1.957477 2.103382 -3.271719 0.000000 0.000000 0.000000 4.451653 20.690885 -26.804437 31.754585 -42.350630 12.575190 6.271307 -3.987826 -5.612808 0.000000 0.000000 0.000000 -7.125000 0.000000 0.000000 -16.873328 35.191413 -4.217762 0.000000 0.000000 0.000000 -15.549260 15.770612 39.612535 -26.539768 -37.736779 -9.216004 -8.559247 0.611673 16.571817 0.000000 0.000000 0.000000 7.125000 0.000000 0.000000 18.014827 45.914778 -0.420364
